<svg width="24" height="24" viewBox="0 0 24 24" fill="none" xmlns="http://www.w3.org/2000/svg">
<path fill-rule="evenodd" clip-rule="evenodd" d="M18.9481 10.8786C18.9472 10.4964 18.6379 10.1881 18.2558 10.1881H18.2539C17.8718 10.189 17.5626 10.4992 17.5635 10.8822C17.5709 14.1758 14.8976 16.8619 11.6078 16.8721C11.6059 16.8721 11.605 16.8712 11.6032 16.8712H11.6004C10.0053 16.8656 8.50805 16.2416 7.38282 15.1109C6.25667 13.9801 5.63913 12.4773 5.64282 10.8822C5.64375 10.5001 5.33451 10.189 4.95236 10.1881H4.95051C4.56928 10.1881 4.25913 10.4964 4.25821 10.8786C4.25359 12.8438 5.01421 14.6946 6.40159 16.0884C7.62467 17.317 9.20498 18.0582 10.9109 18.2207V20.1924C10.9109 20.5746 11.221 20.8847 11.6032 20.8847C11.9862 20.8847 12.2955 20.5746 12.2955 20.1924V18.2198C16.0302 17.8607 18.9573 14.7038 18.9481 10.8786Z" fill="black"/>
<path opacity="0.4" fill-rule="evenodd" clip-rule="evenodd" d="M11.6014 14.7065H11.606C13.7254 14.7009 15.447 12.972 15.4423 10.8526V6.95446C15.4423 4.83785 13.7199 3.11539 11.6023 3.11539C9.48573 3.11539 7.76323 4.83785 7.76323 6.95446V10.8517C7.76138 11.8791 8.15923 12.8455 8.88384 13.5738C9.6085 14.3022 10.574 14.7046 11.6014 14.7065Z" fill="black"/>
</svg>
