<svg width="85" height="24" viewBox="0 0 85 24" fill="none" xmlns="http://www.w3.org/2000/svg">
<path fill-rule="evenodd" clip-rule="evenodd" d="M18.9481 10.8786C18.9472 10.4964 18.6379 10.1881 18.2558 10.1881H18.2539C17.8718 10.189 17.5626 10.4992 17.5635 10.8822C17.5709 14.1758 14.8976 16.8619 11.6078 16.8721C11.6059 16.8721 11.605 16.8712 11.6032 16.8712H11.6004C10.0053 16.8656 8.50806 16.2416 7.38283 15.1109C6.25667 13.9801 5.63913 12.4773 5.64283 10.8822C5.64375 10.5001 5.33452 10.189 4.95236 10.1881H4.95052C4.56929 10.1881 4.25913 10.4964 4.25821 10.8786C4.2536 12.8438 5.01421 14.6946 6.4016 16.0884C7.62467 17.317 9.20498 18.0582 10.9109 18.2207V20.1924C10.9109 20.5746 11.221 20.8847 11.6032 20.8847C11.9862 20.8847 12.2955 20.5746 12.2955 20.1924V18.2198C16.0302 17.8607 18.9573 14.7038 18.9481 10.8786Z" fill="black"/>
<path opacity="0.4" fill-rule="evenodd" clip-rule="evenodd" d="M11.6014 14.7065H11.606C13.7254 14.7009 15.447 12.972 15.4423 10.8526V6.95446C15.4423 4.83785 13.7199 3.11539 11.6023 3.11539C9.48572 3.11539 7.76322 4.83785 7.76322 6.95446V10.8517C7.76138 11.8791 8.15922 12.8455 8.88384 13.5738C9.60849 14.3022 10.574 14.7046 11.6014 14.7065Z" fill="black"/>
<path d="M27.048 17.108C26.488 17.108 26.02 16.988 25.644 16.748C25.276 16.508 24.996 16.176 24.804 15.752C24.612 15.328 24.5 14.836 24.468 14.276L25.668 13.952C25.692 14.296 25.744 14.628 25.824 14.948C25.912 15.268 26.052 15.532 26.244 15.74C26.436 15.94 26.704 16.04 27.048 16.04C27.4 16.04 27.664 15.944 27.84 15.752C28.024 15.552 28.116 15.268 28.116 14.9C28.116 14.46 28.016 14.108 27.816 13.844C27.616 13.572 27.364 13.3 27.06 13.028L25.428 11.588C25.108 11.308 24.872 11.004 24.72 10.676C24.568 10.34 24.492 9.928 24.492 9.44C24.492 8.728 24.696 8.176 25.104 7.784C25.512 7.392 26.068 7.196 26.772 7.196C27.156 7.196 27.492 7.248 27.78 7.352C28.076 7.448 28.32 7.6 28.512 7.808C28.712 8.016 28.868 8.28 28.98 8.6C29.1 8.912 29.18 9.28 29.22 9.704L28.068 10.016C28.044 9.696 27.996 9.404 27.924 9.14C27.852 8.868 27.724 8.652 27.54 8.492C27.364 8.324 27.108 8.24 26.772 8.24C26.436 8.24 26.172 8.332 25.98 8.516C25.796 8.692 25.704 8.956 25.704 9.308C25.704 9.604 25.752 9.848 25.848 10.04C25.952 10.232 26.116 10.428 26.34 10.628L27.984 12.068C28.352 12.388 28.676 12.772 28.956 13.22C29.236 13.66 29.376 14.184 29.376 14.792C29.376 15.272 29.276 15.688 29.076 16.04C28.876 16.384 28.6 16.648 28.248 16.832C27.904 17.016 27.504 17.108 27.048 17.108Z" fill="black"/>
<path d="M30.0439 17V10.064H31.3279V17H30.0439ZM30.0439 9.032V7.688H31.3279V9.032H30.0439Z" fill="black"/>
<path d="M32.3421 17V10.064H33.5301V10.724C33.7621 10.46 34.0181 10.264 34.2981 10.136C34.5781 10.008 34.8661 9.944 35.1621 9.944C35.4181 9.944 35.6461 10.008 35.8461 10.136C36.0541 10.264 36.2021 10.492 36.2901 10.82C36.5381 10.516 36.8061 10.296 37.0941 10.16C37.3901 10.016 37.6981 9.944 38.0181 9.944C38.2421 9.944 38.4461 10 38.6301 10.112C38.8141 10.216 38.9621 10.388 39.0741 10.628C39.1861 10.86 39.2421 11.168 39.2421 11.552V17H38.0661V11.636C38.0661 11.3 38.0101 11.076 37.8981 10.964C37.7941 10.844 37.6501 10.784 37.4661 10.784C37.2901 10.784 37.1061 10.836 36.9141 10.94C36.7221 11.036 36.5461 11.172 36.3861 11.348C36.3861 11.38 36.3861 11.412 36.3861 11.444C36.3861 11.476 36.3861 11.512 36.3861 11.552V17H35.2101V11.636C35.2101 11.3 35.1541 11.076 35.0421 10.964C34.9381 10.844 34.7941 10.784 34.6101 10.784C34.4341 10.784 34.2501 10.836 34.0581 10.94C33.8741 11.036 33.6981 11.172 33.5301 11.348V17H32.3421Z" fill="black"/>
<path d="M40.1383 19.28V10.064H41.4223V10.616C41.5743 10.44 41.7583 10.288 41.9743 10.16C42.1903 10.032 42.4463 9.968 42.7423 9.968C43.1023 9.968 43.3863 10.064 43.5943 10.256C43.8103 10.44 43.9703 10.676 44.0743 10.964C44.1783 11.244 44.2463 11.532 44.2783 11.828C44.3103 12.116 44.3263 12.364 44.3263 12.572V14.252C44.3263 14.74 44.2783 15.204 44.1823 15.644C44.0863 16.076 43.9103 16.428 43.6543 16.7C43.4063 16.964 43.0543 17.096 42.5983 17.096C42.3503 17.096 42.1303 17.036 41.9383 16.916C41.7463 16.788 41.5743 16.644 41.4223 16.484V19.28H40.1383ZM42.3463 16.088C42.5703 16.088 42.7303 16.008 42.8263 15.848C42.9223 15.68 42.9823 15.456 43.0063 15.176C43.0303 14.896 43.0423 14.588 43.0423 14.252V12.572C43.0423 12.284 43.0263 12.02 42.9943 11.78C42.9623 11.532 42.8943 11.336 42.7903 11.192C42.6863 11.048 42.5223 10.976 42.2983 10.976C42.1303 10.976 41.9703 11.012 41.8183 11.084C41.6663 11.156 41.5343 11.24 41.4223 11.336V15.776C41.5423 15.864 41.6783 15.94 41.8303 16.004C41.9823 16.06 42.1543 16.088 42.3463 16.088Z" fill="black"/>
<path d="M45.2538 17V7.28H46.5378V17H45.2538Z" fill="black"/>
<path d="M49.436 17.096C48.892 17.096 48.472 16.992 48.176 16.784C47.88 16.568 47.672 16.256 47.552 15.848C47.44 15.432 47.384 14.924 47.384 14.324V12.74C47.384 12.124 47.444 11.612 47.564 11.204C47.684 10.796 47.892 10.488 48.188 10.28C48.492 10.072 48.908 9.968 49.436 9.968C50.02 9.968 50.448 10.088 50.72 10.328C51 10.568 51.184 10.916 51.272 11.372C51.36 11.82 51.404 12.36 51.404 12.992V13.556H48.668V14.948C48.668 15.228 48.692 15.456 48.74 15.632C48.796 15.808 48.88 15.94 48.992 16.028C49.112 16.108 49.264 16.148 49.448 16.148C49.64 16.148 49.784 16.104 49.88 16.016C49.984 15.92 50.052 15.788 50.084 15.62C50.124 15.444 50.144 15.24 50.144 15.008V14.588H51.392V14.852C51.392 15.548 51.244 16.096 50.948 16.496C50.652 16.896 50.148 17.096 49.436 17.096ZM48.668 12.86H50.144V12.236C50.144 11.948 50.128 11.708 50.096 11.516C50.064 11.316 49.996 11.168 49.892 11.072C49.796 10.968 49.64 10.916 49.424 10.916C49.216 10.916 49.056 10.964 48.944 11.06C48.84 11.156 48.768 11.32 48.728 11.552C48.688 11.776 48.668 12.088 48.668 12.488V12.86Z" fill="black"/>
<path d="M53.5748 17L51.9908 7.28H53.1188L54.1628 14.264L55.4708 7.316H56.4308L57.7508 14.3L58.7708 7.28H59.8748L58.3148 17H57.3308L55.9748 9.8L54.6068 17H53.5748Z" fill="black"/>
<path d="M60.6249 17V7.28H61.9089V10.784C62.1409 10.56 62.4009 10.368 62.6889 10.208C62.9769 10.048 63.2969 9.968 63.6489 9.968C63.9209 9.968 64.1289 10.04 64.2729 10.184C64.4249 10.328 64.5289 10.508 64.5849 10.724C64.6489 10.94 64.6809 11.16 64.6809 11.384V17H63.3969V11.756C63.3969 11.508 63.3609 11.316 63.2889 11.18C63.2169 11.044 63.0689 10.976 62.8449 10.976C62.6929 10.976 62.5329 11.02 62.3649 11.108C62.2049 11.196 62.0529 11.304 61.9089 11.432V17H60.6249Z" fill="black"/>
<path d="M65.6567 17V10.064H66.9407V17H65.6567ZM65.6567 9.032V7.688H66.9407V9.032H65.6567Z" fill="black"/>
<path d="M69.5629 17.096C68.9949 17.096 68.5389 16.92 68.1949 16.568C67.8509 16.208 67.6549 15.736 67.6069 15.152L68.6749 14.828C68.7389 15.268 68.8469 15.6 68.9989 15.824C69.1509 16.04 69.3749 16.148 69.6709 16.148C69.9029 16.148 70.0789 16.084 70.1989 15.956C70.3189 15.82 70.3789 15.64 70.3789 15.416C70.3789 15.216 70.3349 15.036 70.2469 14.876C70.1589 14.716 70.0149 14.552 69.8149 14.384L68.6269 13.364C68.3869 13.156 68.1829 12.924 68.0149 12.668C67.8549 12.412 67.7749 12.08 67.7749 11.672C67.7749 11.304 67.8469 10.996 67.9909 10.748C68.1429 10.492 68.3509 10.3 68.6149 10.172C68.8869 10.036 69.2029 9.968 69.5629 9.968C70.1149 9.968 70.5349 10.148 70.8229 10.508C71.1189 10.86 71.2869 11.288 71.3269 11.792L70.4629 12.116C70.4309 11.876 70.3829 11.668 70.3189 11.492C70.2549 11.308 70.1669 11.168 70.0549 11.072C69.9429 10.968 69.7949 10.916 69.6109 10.916C69.4029 10.916 69.2349 10.988 69.1069 11.132C68.9869 11.268 68.9269 11.432 68.9269 11.624C68.9269 11.744 68.9509 11.864 68.9989 11.984C69.0549 12.096 69.1469 12.208 69.2749 12.32L70.4989 13.448C70.6669 13.6 70.8229 13.764 70.9669 13.94C71.1189 14.116 71.2429 14.316 71.3389 14.54C71.4349 14.764 71.4829 15.024 71.4829 15.32C71.4829 15.712 71.4029 16.04 71.2429 16.304C71.0829 16.568 70.8589 16.768 70.5709 16.904C70.2829 17.032 69.9469 17.096 69.5629 17.096Z" fill="black"/>
<path d="M72.0832 19.28V10.064H73.3672V10.616C73.5192 10.44 73.7032 10.288 73.9192 10.16C74.1352 10.032 74.3912 9.968 74.6872 9.968C75.0472 9.968 75.3312 10.064 75.5392 10.256C75.7552 10.44 75.9152 10.676 76.0192 10.964C76.1232 11.244 76.1912 11.532 76.2232 11.828C76.2552 12.116 76.2712 12.364 76.2712 12.572V14.252C76.2712 14.74 76.2232 15.204 76.1272 15.644C76.0312 16.076 75.8552 16.428 75.5992 16.7C75.3512 16.964 74.9992 17.096 74.5432 17.096C74.2952 17.096 74.0752 17.036 73.8832 16.916C73.6912 16.788 73.5192 16.644 73.3672 16.484V19.28H72.0832ZM74.2912 16.088C74.5152 16.088 74.6752 16.008 74.7712 15.848C74.8672 15.68 74.9272 15.456 74.9512 15.176C74.9752 14.896 74.9872 14.588 74.9872 14.252V12.572C74.9872 12.284 74.9712 12.02 74.9392 11.78C74.9072 11.532 74.8392 11.336 74.7352 11.192C74.6312 11.048 74.4672 10.976 74.2432 10.976C74.0752 10.976 73.9152 11.012 73.7632 11.084C73.6112 11.156 73.4792 11.24 73.3672 11.336V15.776C73.4872 15.864 73.6232 15.94 73.7752 16.004C73.9272 16.06 74.0992 16.088 74.2912 16.088Z" fill="black"/>
<path d="M78.9986 17.096C78.4546 17.096 78.0346 16.992 77.7386 16.784C77.4426 16.568 77.2346 16.256 77.1146 15.848C77.0026 15.432 76.9466 14.924 76.9466 14.324V12.74C76.9466 12.124 77.0066 11.612 77.1266 11.204C77.2466 10.796 77.4546 10.488 77.7506 10.28C78.0546 10.072 78.4706 9.968 78.9986 9.968C79.5826 9.968 80.0106 10.088 80.2826 10.328C80.5626 10.568 80.7466 10.916 80.8346 11.372C80.9226 11.82 80.9666 12.36 80.9666 12.992V13.556H78.2306V14.948C78.2306 15.228 78.2546 15.456 78.3026 15.632C78.3586 15.808 78.4426 15.94 78.5546 16.028C78.6746 16.108 78.8266 16.148 79.0106 16.148C79.2026 16.148 79.3466 16.104 79.4426 16.016C79.5466 15.92 79.6146 15.788 79.6466 15.62C79.6866 15.444 79.7066 15.24 79.7066 15.008V14.588H80.9546V14.852C80.9546 15.548 80.8066 16.096 80.5106 16.496C80.2146 16.896 79.7106 17.096 78.9986 17.096ZM78.2306 12.86H79.7066V12.236C79.7066 11.948 79.6906 11.708 79.6586 11.516C79.6266 11.316 79.5586 11.168 79.4546 11.072C79.3586 10.968 79.2026 10.916 78.9866 10.916C78.7786 10.916 78.6186 10.964 78.5066 11.06C78.4026 11.156 78.3306 11.32 78.2906 11.552C78.2506 11.776 78.2306 12.088 78.2306 12.488V12.86Z" fill="black"/>
<path d="M81.8054 17V10.064H83.0894V11.048C83.3454 10.624 83.6014 10.34 83.8574 10.196C84.1134 10.052 84.3694 9.98 84.6254 9.98C84.6574 9.98 84.6854 9.98 84.7094 9.98C84.7414 9.98 84.7814 9.984 84.8294 9.992V11.408C84.7334 11.368 84.6214 11.336 84.4934 11.312C84.3734 11.28 84.2494 11.264 84.1214 11.264C83.9214 11.264 83.7374 11.312 83.5694 11.408C83.4094 11.496 83.2494 11.672 83.0894 11.936V17H81.8054Z" fill="black"/>
</svg>
